<svg width="2294" height="358" viewBox="0 0 2294 358" fill="none" xmlns="http://www.w3.org/2000/svg">
<path d="M233.763 80.7715L264.651 59.0279L257.932 135.914C242.002 132.148 225.456 129.961 208.452 129.511L208.43 129.51L208.408 129.51L208.362 129.509C206.35 129.481 204.337 129.453 202.265 129.453C199.175 129.453 196.084 129.51 193.021 129.625L193.015 129.626C185.718 129.913 178.478 130.516 171.294 131.435C144.572 134.848 119.226 142.706 95.9535 154.2H95.9245L95.189 154.565C78.3993 162.901 62.6735 173.169 48.3604 185.056V51.2088C54.9562 37.0206 65.9039 25.3114 79.4941 17.8149H269.31L268.546 18.9107L268.541 18.9183L268.535 18.9259L263.355 26.4426L263.344 26.4576L228.877 75.9082L233.763 80.7715Z" fill="#18BEBC" stroke="#18BEBC" stroke-width="7"/>
<path d="M251.764 206.889L251.764 206.893L250.382 222.917L250.381 222.92L247.44 256.708C239.9 289.338 219.226 316.932 191.243 333.489H81.9225C67.1544 325.907 55.2779 313.426 48.417 298.163V254.965C68.2965 228.581 94.754 207.475 125.295 194.061L125.296 194.06C149.068 183.606 175.307 177.821 202.914 177.821C211.037 177.821 219.018 178.321 226.86 179.294L226.869 179.296C232.126 179.934 237.327 180.795 242.472 181.877C246.281 182.704 250.035 183.599 253.713 184.603L251.764 206.889Z" fill="#18BEBC" stroke="#18BEBC" stroke-width="7"/>
<path d="M358.027 129.086C341.732 129.508 325.811 131.487 310.467 135.005L303.855 59.2149L334.748 80.9148L339.631 76.0485L305.012 26.413L305.012 26.4129L300.507 19.9535V19.9208L299.873 19.0164L299.05 17.843H485.492C498.583 25.0282 509.199 36.1323 515.86 49.5826V182.924C502.156 171.78 487.229 162.12 471.291 154.198C447.212 142.188 420.899 134.114 393.101 130.752C387.169 130.033 381.158 129.545 375.128 129.258L375.126 129.258C371.443 129.085 367.745 129.028 364.043 129.028C362.039 129.028 360.039 129.057 358.068 129.085L358.047 129.085L358.027 129.086Z" fill="#18BEBC" stroke="#18BEBC" stroke-width="7"/>
<path d="M317.689 218.14V218.03L317.676 217.881L316.83 208.027L316.83 208.023L314.74 183.972C318.079 183.077 321.442 182.265 324.846 181.573L324.866 181.569L324.886 181.564C329.385 180.595 333.94 179.819 338.553 179.237L338.572 179.235L338.591 179.232C347.096 178.064 355.824 177.452 364.664 177.452C391.717 177.452 417.484 183.015 440.835 193.106L440.847 193.111C470.368 205.742 496.085 225.533 515.86 250.29V297.564C508.748 313.288 496.222 326.056 480.733 333.545H379.28C350.93 317.704 329.624 290.738 321.233 258.526L317.689 218.14Z" fill="#18BEBC" stroke="#18BEBC" stroke-width="7"/>
<path d="M675.534 273.382V113.414H620.53V78.977H766.096V113.414H711.092V273.382H675.534ZM784.661 273.382V65.0909H819.108V154.795L811.329 148.685C817.163 144.612 823.507 140.863 830.359 137.437C837.21 134.012 845.405 132.299 854.944 132.299C867.167 132.299 877.122 135.03 884.807 140.492C892.492 145.862 898.141 153.36 901.752 162.988C905.364 172.523 907.17 183.585 907.17 196.175V273.382H872.723V198.675C872.723 185.715 870.639 176.133 866.472 169.931C862.305 163.728 855.499 160.627 846.054 160.627C837.998 160.627 831.376 162.525 826.192 166.32C821.098 170.023 816.608 175.069 812.718 181.456L819.108 162.849V273.382H784.661ZM1004.89 276.159C988.132 276.159 974.151 272.826 962.946 266.161C951.834 259.402 943.5 250.515 937.944 239.5C932.388 228.391 929.61 216.264 929.61 203.118C929.61 190.436 932.204 178.725 937.389 167.987C942.667 157.248 950.352 148.639 960.446 142.159C970.54 135.586 982.854 132.299 997.393 132.299C1010.73 132.299 1021.84 135.03 1030.73 140.492C1039.62 145.954 1046.29 153.267 1050.73 162.432C1055.17 171.504 1057.4 181.549 1057.4 192.565C1057.4 195.62 1057.21 198.721 1056.84 201.869C1056.47 204.924 1055.91 208.117 1055.17 211.45H965.446C966.742 220.059 969.429 227.048 973.502 232.418C977.669 237.695 982.715 241.583 988.642 244.082C994.661 246.582 1001.1 247.831 1007.95 247.831C1016.01 247.831 1023.51 246.814 1030.45 244.777C1037.4 242.648 1043.79 239.871 1049.62 236.445L1051.29 265.606C1046.01 268.383 1039.43 270.837 1031.56 272.965C1023.69 275.094 1014.8 276.159 1004.89 276.159ZM966.28 188.121H1022.39C1022.39 183.956 1021.61 179.79 1020.03 175.624C1018.46 171.366 1015.82 167.802 1012.12 164.932C1008.5 162.062 1003.6 160.627 997.393 160.627C988.503 160.627 981.513 163.219 976.419 168.403C971.326 173.587 967.946 180.16 966.28 188.121ZM1081.85 273.382V78.977H1155.19C1173.99 78.977 1187.92 83.004 1197 91.0579C1206.16 99.0191 1210.75 110.637 1210.75 125.912C1210.75 137.298 1208.15 146.834 1202.97 154.517C1197.88 162.108 1190.19 167.663 1179.91 171.18V164.515C1195.47 167.848 1207.09 173.958 1214.78 182.845C1222.46 191.732 1226.3 203.489 1226.3 218.115C1226.3 235.612 1220.66 249.22 1209.36 258.94C1198.06 268.567 1182.6 273.382 1162.97 273.382H1081.85ZM1117.41 241.722H1157.69C1167.41 241.722 1175.14 239.732 1180.88 235.751C1186.72 231.769 1189.64 224.596 1189.64 214.227C1189.64 203.674 1186.58 196.499 1180.47 192.704C1174.36 188.908 1166.76 187.011 1157.69 187.011H1117.41V241.722ZM1117.41 155.35H1149.91C1158.52 155.35 1164.96 153.591 1169.22 150.074C1173.57 146.556 1175.75 140.909 1175.75 133.133C1175.75 125.079 1173.57 119.339 1169.22 115.914C1164.96 112.396 1158.52 110.637 1149.91 110.637H1117.41V155.35ZM1248.84 273.382V134.521H1281.06L1281.9 149.24C1285.41 145.352 1290.37 141.464 1296.76 137.576C1303.15 133.688 1310.14 131.744 1317.73 131.744C1319.96 131.744 1321.99 131.929 1323.84 132.299L1321.34 166.181C1319.31 165.626 1317.27 165.256 1315.23 165.071C1313.29 164.886 1311.34 164.793 1309.4 164.793C1303.56 164.793 1298.24 166.135 1293.43 168.82C1288.61 171.504 1285.23 174.791 1283.29 178.679V273.382H1248.84ZM1368.91 276.159C1361.5 276.159 1354.74 274.538 1348.63 271.299C1342.52 267.966 1337.66 263.199 1334.04 256.996C1330.43 250.793 1328.63 243.295 1328.63 234.501C1328.63 226.631 1330.43 219.921 1334.04 214.366C1337.75 208.719 1342.56 204.044 1348.49 200.341C1354.51 196.546 1360.99 193.583 1367.94 191.454C1374.97 189.232 1381.87 187.612 1388.63 186.594C1395.48 185.576 1401.5 184.974 1406.69 184.789C1406.32 176.828 1404.28 171.042 1400.58 167.431C1396.87 163.821 1390.58 162.016 1381.69 162.016C1375.48 162.016 1369.42 162.895 1363.49 164.654C1357.66 166.32 1351.04 168.959 1343.63 172.569L1340.57 144.519C1348.91 140.446 1357.24 137.391 1365.57 135.354C1374 133.318 1382.52 132.299 1391.13 132.299C1401.5 132.299 1410.44 134.151 1417.94 137.854C1425.44 141.557 1431.23 147.528 1435.3 155.767C1439.38 163.913 1441.41 174.698 1441.41 188.121V225.614C1441.41 232.557 1441.74 237.601 1442.39 240.75C1443.03 243.805 1444.24 245.749 1446 246.582C1447.76 247.415 1450.3 247.831 1453.64 247.831H1458.08L1455.03 276.159H1442.52C1437.34 276.159 1432.71 275.465 1428.63 274.076C1424.65 272.781 1421.23 270.928 1418.36 268.522C1415.48 266.116 1413.17 263.291 1411.41 260.051C1406.87 265.144 1400.72 269.123 1392.94 271.993C1385.25 274.77 1377.24 276.159 1368.91 276.159ZM1383.35 249.776C1386.41 249.776 1390.21 248.988 1394.74 247.415C1399.28 245.749 1403.36 243.204 1406.97 239.778V208.117C1400.48 208.395 1394 209.46 1387.52 211.311C1381.04 213.163 1375.62 215.894 1371.27 219.504C1366.92 223.114 1364.74 227.651 1364.74 233.112C1364.74 238.76 1366.22 242.971 1369.19 245.749C1372.15 248.432 1376.87 249.776 1383.35 249.776ZM1477.26 273.382V134.521H1506.71L1508.93 154.795L1503.93 148.685C1509.21 144.519 1515.51 140.77 1522.82 137.437C1530.23 134.012 1538.84 132.299 1548.66 132.299C1556.06 132.299 1562.59 133.41 1568.24 135.632C1573.98 137.761 1578.89 140.863 1582.96 144.936C1587.04 148.917 1590.33 153.684 1592.83 159.238L1584.49 157.294C1588.94 149.333 1595.42 143.177 1603.94 138.826C1612.55 134.475 1622.27 132.299 1633.11 132.299C1645.89 132.299 1656.3 134.938 1664.36 140.215C1672.42 145.491 1678.34 152.943 1682.14 162.571C1685.93 172.106 1687.83 183.308 1687.83 196.175V273.382H1653.39V198.675C1653.39 185.715 1651.35 176.133 1647.27 169.931C1643.29 163.728 1636.62 160.627 1627.27 160.627C1622.64 160.627 1618.57 161.46 1615.05 163.127C1611.62 164.7 1608.75 167.061 1606.44 170.208C1604.22 173.263 1602.55 177.013 1601.44 181.456C1600.33 185.807 1599.77 190.714 1599.77 196.175V273.382H1565.32V198.675C1565.32 190.065 1564.4 182.937 1562.55 177.29C1560.79 171.643 1557.92 167.477 1553.93 164.793C1550.05 162.016 1544.95 160.627 1538.66 160.627C1530.6 160.627 1523.98 162.525 1518.79 166.32C1513.7 170.023 1509.21 175.069 1505.32 181.456L1511.71 162.849V273.382H1477.26ZM1790.93 276.159C1780.38 276.159 1771.26 274.447 1763.57 271.021C1755.89 267.595 1748.71 262.922 1742.04 256.996L1752.32 249.776L1750.65 273.382H1718.43V65.0909H1752.88V157.572L1744.54 152.295C1750.65 146 1757.46 141.094 1764.96 137.576C1772.55 134.058 1781.21 132.299 1790.93 132.299C1804.55 132.299 1815.98 135.586 1825.24 142.159C1834.5 148.731 1841.49 157.479 1846.22 168.403C1851.03 179.327 1853.44 191.269 1853.44 204.229C1853.44 217.189 1851.03 229.131 1846.22 240.055C1841.49 250.98 1834.5 259.728 1825.24 266.3C1815.98 272.872 1804.55 276.159 1790.93 276.159ZM1785.93 247.831C1792.79 247.831 1798.62 245.981 1803.44 242.277C1808.25 238.573 1811.91 233.483 1814.41 227.002C1816.91 220.43 1818.16 212.839 1818.16 204.229C1818.16 195.62 1816.91 188.075 1814.41 181.595C1811.91 175.022 1808.25 169.884 1803.44 166.181C1798.62 162.478 1792.79 160.627 1785.93 160.627C1777.88 160.627 1771.3 162.478 1766.21 166.181C1761.12 169.884 1757.32 175.022 1754.82 181.595C1752.41 188.075 1751.21 195.62 1751.21 204.229C1751.21 212.839 1752.41 220.43 1754.82 227.002C1757.32 233.483 1761.12 238.573 1766.21 242.277C1771.3 245.981 1777.88 247.831 1785.93 247.831ZM1907.41 276.159C1900 276.159 1893.24 274.538 1887.13 271.299C1881.02 267.966 1876.16 263.199 1872.55 256.996C1868.94 250.793 1867.13 243.295 1867.13 234.501C1867.13 226.631 1868.94 219.921 1872.55 214.366C1876.25 208.719 1881.07 204.044 1886.99 200.341C1893.01 196.546 1899.49 193.583 1906.44 191.454C1913.48 189.232 1920.38 187.612 1927.14 186.594C1933.99 185.576 1940.01 184.974 1945.19 184.789C1944.82 176.828 1942.79 171.042 1939.08 167.431C1935.38 163.821 1929.08 162.016 1920.19 162.016C1913.99 162.016 1907.92 162.895 1902 164.654C1896.16 166.32 1889.54 168.959 1882.13 172.569L1879.08 144.519C1887.41 140.446 1895.74 137.391 1904.08 135.354C1912.51 133.318 1921.02 132.299 1929.64 132.299C1940.01 132.299 1948.94 134.151 1956.44 137.854C1963.94 141.557 1969.73 147.528 1973.81 155.767C1977.88 163.913 1979.92 174.698 1979.92 188.121V225.614C1979.92 232.557 1980.24 237.601 1980.89 240.75C1981.54 243.805 1982.74 245.749 1984.5 246.582C1986.26 247.415 1988.81 247.831 1992.14 247.831H1996.59L1993.53 276.159H1981.03C1975.84 276.159 1971.21 275.465 1967.14 274.076C1963.16 272.781 1959.73 270.928 1956.86 268.522C1953.99 266.116 1951.68 263.291 1949.92 260.051C1945.38 265.144 1939.22 269.123 1931.44 271.993C1923.76 274.77 1915.75 276.159 1907.41 276.159ZM1921.86 249.776C1924.91 249.776 1928.71 248.988 1933.25 247.415C1937.79 245.749 1941.86 243.204 1945.47 239.778V208.117C1938.99 208.395 1932.51 209.46 1926.02 211.311C1919.54 213.163 1914.12 215.894 1909.77 219.504C1905.42 223.114 1903.25 227.651 1903.25 233.112C1903.25 238.76 1904.73 242.971 1907.69 245.749C1910.65 248.432 1915.38 249.776 1921.86 249.776ZM2015.77 273.382V134.521H2047.99L2049.38 160.349L2041.32 149.796C2046.6 145.352 2052.9 141.325 2060.21 137.715C2067.53 134.105 2076.05 132.299 2085.77 132.299C2103.55 132.299 2116.75 138.224 2125.36 150.074C2133.97 161.831 2138.27 177.105 2138.27 195.898V273.382H2103.83V198.675C2103.83 185.715 2101.65 176.133 2097.3 169.931C2093.04 163.728 2086.05 160.627 2076.33 160.627C2068.45 160.627 2062.02 162.571 2057.02 166.459C2052.02 170.255 2047.62 175.346 2043.82 181.734L2050.21 164.793V273.382H2015.77ZM2224.05 343.368C2211.07 343.368 2199.74 341.747 2190.02 338.507C2180.39 335.359 2172.88 330.825 2167.52 324.899C2162.24 318.974 2159.6 311.892 2159.6 303.653C2159.6 296.71 2161.5 290.507 2165.29 285.046C2169.18 279.676 2174.79 274.955 2182.1 270.882C2178.39 268.661 2175.44 265.883 2173.2 262.551C2170.99 259.218 2169.88 255.423 2169.88 251.164C2169.88 246.721 2171.12 242.878 2173.64 239.639C2176.22 236.306 2179.6 233.668 2183.77 231.724C2176.74 226.725 2171.4 220.337 2167.79 212.561C2164.18 204.692 2162.38 196.175 2162.38 187.011C2162.38 177.013 2164.55 167.848 2168.9 159.516C2173.27 151.092 2179.6 144.38 2187.94 139.381C2196.36 134.29 2206.65 131.744 2218.78 131.744C2225.07 131.744 2230.84 132.531 2236.14 134.105C2241.5 135.678 2246.28 137.854 2250.44 140.631C2253.22 139.057 2257.24 137.669 2262.53 136.465C2267.8 135.169 2273.69 134.521 2280.15 134.521C2281.74 134.521 2283.21 134.521 2284.6 134.521C2286.08 134.521 2287.58 134.521 2289.05 134.521L2286.84 156.184C2284.8 156.184 2282.71 156.184 2280.59 156.184C2278.55 156.184 2276.46 156.184 2274.34 156.184C2273.49 156.184 2272.38 156.184 2270.99 156.184C2269.61 156.184 2268.13 156.276 2266.55 156.461C2269.32 160.72 2271.41 165.487 2272.8 170.764C2274.19 176.041 2274.88 181.456 2274.88 187.011C2274.88 197.009 2272.71 206.22 2268.35 214.644C2264.09 222.975 2257.8 229.686 2249.47 234.779C2241.13 239.778 2230.91 242.277 2218.78 242.277C2216.17 242.277 2213.68 242.093 2211.27 241.722C2208.86 241.351 2206.45 240.888 2204.04 240.333C2202 241.166 2200.98 242.648 2200.98 244.777C2200.98 247.276 2202.52 249.175 2205.58 250.47C2208.62 251.765 2213.4 252.924 2219.88 253.941L2243.78 256.996C2258.69 258.94 2270.34 263.152 2278.76 269.633C2287.29 276.114 2291.55 285.324 2291.55 297.266C2291.55 306.524 2288.86 314.578 2283.5 321.428C2278.22 328.371 2270.54 333.741 2260.45 337.535C2250.36 341.424 2238.22 343.368 2224.05 343.368ZM2225.44 317.262C2237.09 317.262 2245.95 315.828 2251.96 312.957C2257.99 310.087 2260.99 305.691 2260.99 299.765C2260.99 294.489 2258.86 290.601 2254.61 288.101C2250.44 285.602 2243.78 283.658 2234.6 282.269L2204.19 277.825C2199.66 279.585 2195.86 281.991 2192.8 285.046C2189.74 288.194 2188.22 292.267 2188.22 297.266C2188.22 304.024 2191.5 309.023 2198.07 312.263C2204.65 315.595 2213.76 317.262 2225.44 317.262ZM2218.78 216.727C2227 216.727 2233.21 214.042 2237.38 208.673C2241.63 203.211 2243.78 195.99 2243.78 187.011C2243.78 177.938 2241.63 170.718 2237.38 165.348C2233.21 159.979 2227 157.294 2218.78 157.294C2210.44 157.294 2204.13 159.979 2199.87 165.348C2195.62 170.718 2193.49 177.938 2193.49 187.011C2193.49 195.99 2195.62 203.211 2199.87 208.673C2204.13 214.042 2210.44 216.727 2218.78 216.727Z" fill="#18BEBC"/>
</svg>
