<svg width="671" height="255" viewBox="0 0 671 255" fill="none" xmlns="http://www.w3.org/2000/svg">
<path fill-rule="evenodd" clip-rule="evenodd" d="M670.525 105.346H320.364V109.59H670.525V105.346ZM446.821 206.145H320.364V210.389H444.658L446.821 206.145ZM468.365 206.145L466.245 210.389H485.933V206.145H468.365Z" fill="black"/>
<path d="M341.821 98.9799C341.199 98.9799 340.69 98.7818 340.295 98.3857C339.899 97.9896 339.701 97.4803 339.701 96.8578V51.3605H324.265C323.7 51.3605 323.219 51.1625 322.823 50.7663C322.427 50.3702 322.229 49.8892 322.229 49.3233V41.6839C322.229 41.0614 322.427 40.5521 322.823 40.156C323.219 39.7598 323.7 39.5618 324.265 39.5618H368.707C369.329 39.5618 369.837 39.7598 370.233 40.156C370.629 40.5521 370.827 41.0614 370.827 41.6839V49.3233C370.827 49.8892 370.629 50.3702 370.233 50.7663C369.837 51.1625 369.329 51.3605 368.707 51.3605H353.356V96.8578C353.356 97.4803 353.158 97.9896 352.762 98.3857C352.366 98.7818 351.857 98.9799 351.235 98.9799H341.821ZM378.682 98.9799C378.06 98.9799 377.551 98.7818 377.155 98.3857C376.759 97.9896 376.561 97.4803 376.561 96.8578V40.835C376.561 40.2126 376.759 39.7033 377.155 39.3071C377.551 38.911 378.06 38.713 378.682 38.713H387.842C388.407 38.713 388.888 38.911 389.283 39.3071C389.679 39.7033 389.877 40.2126 389.877 40.835V59.9337C391.404 58.1229 393.27 56.6799 395.475 55.6047C397.68 54.5295 400.337 53.9919 403.447 53.9919C406.783 53.9919 409.723 54.7558 412.267 56.2837C414.868 57.755 416.904 59.9337 418.374 62.8197C419.844 65.6492 420.579 69.1011 420.579 73.1754V96.8578C420.579 97.4803 420.381 97.9896 419.985 98.3857C419.59 98.7818 419.081 98.9799 418.459 98.9799H409.214C408.649 98.9799 408.168 98.7818 407.772 98.3857C407.377 97.9896 407.179 97.4803 407.179 96.8578V73.6847C407.179 70.6855 406.444 68.3654 404.974 66.7243C403.504 65.0267 401.411 64.1778 398.697 64.1778C396.04 64.1778 393.891 65.0267 392.252 66.7243C390.669 68.3654 389.877 70.6855 389.877 73.6847V96.8578C389.877 97.4803 389.679 97.9896 389.283 98.3857C388.888 98.7818 388.407 98.9799 387.842 98.9799H378.682ZM450.405 99.8287C443.902 99.8287 438.729 98.0179 434.884 94.3962C431.096 90.7745 429.089 85.5118 428.862 78.608C428.862 78.1552 428.862 77.5611 428.862 76.8254C428.862 76.0332 428.862 75.4107 428.862 74.958C429.089 70.6007 430.078 66.8658 431.831 63.7534C433.584 60.5845 436.043 58.1795 439.21 56.5384C442.376 54.8407 446.079 53.9919 450.32 53.9919C455.069 53.9919 459.027 54.9822 462.194 56.9628C465.416 58.8868 467.82 61.5465 469.403 64.9418C471.042 68.2805 471.862 72.1286 471.862 76.4859V78.4382C471.862 79.0041 471.636 79.4851 471.184 79.8812C470.788 80.2773 470.307 80.4754 469.742 80.4754H442.008C442.008 80.532 442.008 80.6451 442.008 80.8149C442.008 80.9281 442.008 81.0413 442.008 81.1544C442.065 82.9653 442.404 84.6346 443.026 86.1625C443.705 87.6338 444.637 88.8222 445.825 89.7276C447.069 90.633 448.539 91.0858 450.235 91.0858C451.649 91.0858 452.808 90.8877 453.712 90.4916C454.617 90.0954 455.352 89.6145 455.918 89.0486C456.539 88.4827 456.992 88.0017 457.275 87.6056C457.783 87.0397 458.179 86.7001 458.462 86.587C458.801 86.4172 459.31 86.3323 459.989 86.3323H468.809C469.374 86.3323 469.827 86.5021 470.166 86.8416C470.562 87.1245 470.731 87.549 470.675 88.1149C470.618 89.0203 470.138 90.152 469.233 91.5102C468.385 92.8117 467.113 94.1132 465.417 95.4148C463.72 96.6597 461.6 97.7066 459.056 98.5555C456.568 99.4043 453.684 99.8287 450.405 99.8287ZM442.008 72.751H458.632V72.5813C458.632 70.5441 458.292 68.7898 457.614 67.3185C456.992 65.7906 456.059 64.6023 454.815 63.7534C453.571 62.9046 452.073 62.4802 450.32 62.4802C448.567 62.4802 447.069 62.9046 445.825 63.7534C444.581 64.6023 443.62 65.7906 442.941 67.3185C442.319 68.7898 442.008 70.5441 442.008 72.5813V72.751ZM483.393 98.9799C482.771 98.9799 482.262 98.7818 481.867 98.3857C481.471 97.9896 481.273 97.4803 481.273 96.8578V41.6839C481.273 41.0614 481.471 40.5521 481.867 40.156C482.262 39.7598 482.771 39.5618 483.393 39.5618H491.111C491.959 39.5618 492.581 39.7598 492.977 40.156C493.373 40.5521 493.627 40.8633 493.74 41.0897L516.385 76.4859V41.6839C516.385 41.0614 516.583 40.5521 516.979 40.156C517.375 39.7598 517.855 39.5618 518.421 39.5618H527.071C527.693 39.5618 528.202 39.7598 528.598 40.156C528.994 40.5521 529.192 41.0614 529.192 41.6839V96.8578C529.192 97.4237 528.994 97.933 528.598 98.3857C528.202 98.7818 527.693 98.9799 527.071 98.9799H519.269C518.421 98.9799 517.799 98.7818 517.403 98.3857C517.064 97.933 516.809 97.6217 516.64 97.452L494.079 63.1593V96.8578C494.079 97.4803 493.882 97.9896 493.486 98.3857C493.09 98.7818 492.581 98.9799 491.959 98.9799H483.393ZM560.479 99.8287C553.976 99.8287 548.803 98.0179 544.958 94.3962C541.17 90.7745 539.163 85.5118 538.936 78.608C538.936 78.1552 538.936 77.5611 538.936 76.8254C538.936 76.0332 538.936 75.4107 538.936 74.958C539.163 70.6007 540.152 66.8658 541.905 63.7534C543.658 60.5845 546.117 58.1795 549.283 56.5384C552.45 54.8407 556.153 53.9919 560.394 53.9919C565.143 53.9919 569.101 54.9822 572.268 56.9628C575.49 58.8868 577.894 61.5465 579.477 64.9418C581.116 68.2805 581.936 72.1286 581.936 76.4859V78.4382C581.936 79.0041 581.71 79.4851 581.258 79.8812C580.862 80.2773 580.381 80.4754 579.816 80.4754H552.082C552.082 80.532 552.082 80.6451 552.082 80.8149C552.082 80.9281 552.082 81.0413 552.082 81.1544C552.139 82.9653 552.478 84.6346 553.1 86.1625C553.779 87.6338 554.711 88.8222 555.899 89.7276C557.143 90.633 558.613 91.0858 560.309 91.0858C561.723 91.0858 562.882 90.8877 563.786 90.4916C564.691 90.0954 565.426 89.6145 565.991 89.0486C566.613 88.4827 567.066 88.0017 567.348 87.6056C567.857 87.0397 568.253 86.7001 568.536 86.587C568.875 86.4172 569.384 86.3323 570.063 86.3323H578.883C579.448 86.3323 579.901 86.5021 580.24 86.8416C580.636 87.1245 580.805 87.549 580.749 88.1149C580.692 89.0203 580.212 90.152 579.307 91.5102C578.459 92.8117 577.187 94.1132 575.49 95.4148C573.794 96.6597 571.674 97.7066 569.13 98.5555C566.642 99.4043 563.758 99.8287 560.479 99.8287ZM552.082 72.751H568.706V72.5813C568.706 70.5441 568.366 68.7898 567.688 67.3185C567.066 65.7906 566.133 64.6023 564.889 63.7534C563.645 62.9046 562.147 62.4802 560.394 62.4802C558.641 62.4802 557.143 62.9046 555.899 63.7534C554.655 64.6023 553.694 65.7906 553.015 67.3185C552.393 68.7898 552.082 70.5441 552.082 72.5813V72.751ZM587.223 98.9799C586.714 98.9799 586.262 98.8101 585.866 98.4706C585.527 98.0744 585.357 97.6217 585.357 97.1124C585.357 96.9427 585.385 96.7446 585.442 96.5183C585.555 96.2353 585.696 95.9807 585.866 95.7543L600.199 76.3161L587.053 58.0663C586.884 57.8399 586.742 57.6136 586.629 57.3872C586.573 57.1609 586.544 56.9345 586.544 56.7081C586.544 56.1988 586.714 55.7744 587.053 55.4349C587.449 55.0388 587.901 54.8407 588.41 54.8407H597.231C597.909 54.8407 598.418 55.0105 598.757 55.35C599.153 55.6895 599.436 56.0008 599.605 56.2837L608.341 68.1673L617.077 56.3686C617.303 56.0857 617.586 55.7744 617.925 55.4349C618.264 55.0388 618.801 54.8407 619.536 54.8407H627.933C628.442 54.8407 628.866 55.0388 629.205 55.4349C629.601 55.7744 629.799 56.1988 629.799 56.7081C629.799 56.9345 629.77 57.1609 629.714 57.3872C629.657 57.6136 629.516 57.8399 629.29 58.0663L615.889 76.401L630.392 95.7543C630.562 95.9807 630.675 96.207 630.732 96.4334C630.845 96.6597 630.901 96.8861 630.901 97.1124C630.901 97.6217 630.703 98.0744 630.307 98.4706C629.968 98.8101 629.544 98.9799 629.035 98.9799H619.791C619.169 98.9799 618.688 98.8384 618.349 98.5555C618.01 98.2159 617.727 97.9047 617.501 97.6217L608.087 85.0591L598.503 97.6217C598.333 97.8481 598.079 98.131 597.74 98.4706C597.4 98.8101 596.891 98.9799 596.213 98.9799H587.223ZM659.076 98.9799C655.57 98.9799 652.573 98.414 650.086 97.2822C647.598 96.0938 645.704 94.283 644.403 91.8497C643.159 89.4164 642.537 86.3606 642.537 82.6823V64.8569H635.922C635.3 64.8569 634.791 64.6589 634.395 64.2627C633.999 63.8666 633.802 63.3573 633.802 62.7348V56.9628C633.802 56.3403 633.999 55.831 634.395 55.4349C634.791 55.0388 635.3 54.8407 635.922 54.8407H642.537V40.835C642.537 40.2126 642.735 39.7033 643.131 39.3071C643.583 38.911 644.092 38.713 644.658 38.713H652.969C653.591 38.713 654.1 38.911 654.496 39.3071C654.892 39.7033 655.089 40.2126 655.089 40.835V54.8407H665.691C666.256 54.8407 666.737 55.0388 667.133 55.4349C667.529 55.831 667.727 56.3403 667.727 56.9628V62.7348C667.727 63.3573 667.529 63.8666 667.133 64.2627C666.737 64.6589 666.256 64.8569 665.691 64.8569H655.089V81.6637C655.089 83.8141 655.457 85.5118 656.192 86.7567C656.984 87.9451 658.341 88.5393 660.263 88.5393H666.454C667.02 88.5393 667.5 88.7373 667.896 89.1334C668.292 89.5296 668.49 90.0106 668.49 90.5765V96.8578C668.49 97.4803 668.292 97.9896 667.896 98.3857C667.5 98.7818 667.02 98.9799 666.454 98.9799H659.076ZM336.308 199.778C335.404 199.778 334.669 199.524 334.103 199.014C333.594 198.505 333.283 197.883 333.17 197.147L323.502 142.737C323.445 142.624 323.417 142.511 323.417 142.398C323.417 142.284 323.417 142.199 323.417 142.143C323.417 141.69 323.587 141.294 323.926 140.955C324.265 140.558 324.689 140.36 325.198 140.36H334.103C335.573 140.36 336.393 140.954 336.563 142.143L342.924 178.048L349.793 155.724C349.963 155.271 350.246 154.79 350.642 154.281C351.037 153.772 351.688 153.517 352.592 153.517H357.935C358.84 153.517 359.49 153.772 359.886 154.281C360.282 154.79 360.536 155.271 360.649 155.724L367.604 177.963L373.88 142.143C374.05 140.954 374.898 140.36 376.425 140.36H385.33C385.839 140.36 386.263 140.558 386.602 140.955C386.941 141.294 387.111 141.69 387.111 142.143C387.111 142.199 387.111 142.284 387.111 142.398C387.111 142.511 387.083 142.624 387.026 142.737L377.357 197.147C377.244 197.883 376.905 198.505 376.34 199.014C375.831 199.524 375.124 199.778 374.219 199.778H367.35C366.445 199.778 365.738 199.552 365.229 199.099C364.777 198.59 364.466 198.081 364.296 197.571L355.221 171.258L346.231 197.571C346.062 198.081 345.722 198.59 345.214 199.099C344.761 199.552 344.055 199.778 343.093 199.778H336.308ZM406.765 200.627C403.769 200.627 401.083 200.061 398.708 198.93C396.333 197.741 394.439 196.157 393.026 194.176C391.612 192.196 390.905 189.989 390.905 187.555C390.905 183.537 392.517 180.369 395.74 178.048C399.019 175.728 403.316 174.144 408.631 173.295L419.742 171.682V170.154C419.742 167.947 419.233 166.25 418.215 165.061C417.197 163.873 415.416 163.279 412.872 163.279C411.006 163.279 409.508 163.647 408.377 164.382C407.246 165.118 406.369 166.08 405.748 167.268C405.295 168.004 404.645 168.372 403.797 168.372H395.74C395.118 168.372 394.637 168.202 394.298 167.862C393.959 167.466 393.817 167.014 393.874 166.504C393.874 165.542 394.241 164.411 394.976 163.109C395.711 161.807 396.842 160.534 398.369 159.289C399.895 157.988 401.846 156.913 404.221 156.064C406.596 155.215 409.508 154.79 412.957 154.79C416.519 154.79 419.572 155.215 422.116 156.064C424.661 156.913 426.696 158.101 428.223 159.629C429.749 161.157 430.88 162.939 431.615 164.976C432.35 166.957 432.718 169.107 432.718 171.428V197.656C432.718 198.279 432.52 198.788 432.124 199.184C431.728 199.58 431.219 199.778 430.598 199.778H422.286C421.72 199.778 421.24 199.58 420.844 199.184C420.448 198.788 420.25 198.279 420.25 197.656V194.516C419.515 195.591 418.526 196.609 417.282 197.571C416.038 198.477 414.54 199.213 412.787 199.778C411.09 200.344 409.083 200.627 406.765 200.627ZM410.158 191.799C412.024 191.799 413.692 191.403 415.162 190.611C416.632 189.819 417.791 188.602 418.639 186.961C419.487 185.32 419.911 183.255 419.911 180.765V179.322L412.024 180.595C408.97 181.104 406.737 181.868 405.323 182.887C403.91 183.905 403.203 185.15 403.203 186.622C403.203 187.697 403.514 188.63 404.136 189.423C404.815 190.215 405.691 190.809 406.765 191.205C407.84 191.601 408.97 191.799 410.158 191.799ZM449.718 215.906C449.266 215.906 448.842 215.736 448.446 215.397C448.107 215.057 447.937 214.633 447.937 214.124C447.937 214.01 447.965 213.841 448.022 213.614C448.079 213.445 448.163 213.218 448.276 212.935L454.892 197.062L438.608 158.61C438.438 158.157 438.353 157.79 438.353 157.507C438.41 156.997 438.608 156.573 438.947 156.233C439.286 155.837 439.71 155.639 440.219 155.639H448.446C449.181 155.639 449.718 155.837 450.058 156.233C450.397 156.573 450.651 156.941 450.821 157.337L461.338 183.651L472.109 157.337C472.335 156.884 472.618 156.488 472.957 156.149C473.296 155.809 473.833 155.639 474.568 155.639H482.625C483.134 155.639 483.558 155.837 483.898 156.233C484.293 156.573 484.491 156.969 484.491 157.422C484.491 157.705 484.378 158.101 484.152 158.61L460.15 214.209C459.981 214.661 459.698 215.057 459.302 215.397C458.963 215.736 458.426 215.906 457.691 215.906H449.718Z" fill="black"/>
<path d="M234.917 0H19.87C8.8961 0 0 8.90352 0 19.8866V235.113C0 246.096 8.8961 255 19.87 255H234.917C245.891 255 254.788 246.096 254.788 235.113V19.8866C254.788 8.90352 245.891 0 234.917 0Z" fill="black"/>
<path d="M67.9688 52.4212C68.9176 53.373 69.4505 54.6628 69.4505 56.0074C69.4505 57.352 68.9176 58.6417 67.9688 59.5936L42.8795 84.717C42.0338 85.5891 40.9144 86.144 39.7086 86.2889C38.503 86.4337 37.2841 86.1596 36.2562 85.5125C35.6447 85.0907 35.1334 84.5394 34.7588 83.8977C34.3841 83.256 34.1551 82.5396 34.088 81.7994C34.0211 81.0591 34.1176 80.3132 34.371 79.6146C34.6244 78.9159 35.0283 78.2816 35.5541 77.7567L57.0933 56.1598C57.1259 56.1234 57.1438 56.0762 57.1438 56.0273C57.1438 55.9783 57.1259 55.9312 57.0933 55.8947L35.5144 34.258C34.9906 33.7304 34.5894 33.0939 34.3392 32.3935C34.089 31.6932 33.9961 30.9463 34.0668 30.2059C34.1377 29.4655 34.3706 28.7499 34.749 28.1098C35.1273 27.4696 35.642 26.9208 36.2562 26.5022C37.2952 25.8946 38.5037 25.6423 39.6987 25.7834C40.8938 25.9245 42.0104 26.4515 42.8795 27.2845L68.0483 52.4741L67.9688 52.4212Z" fill="white"/>
</svg>
